<svg xmlns="http://www.w3.org/2000/svg" viewBox="0 0 1049.35 830.32"><defs><style>.cls-1{fill:#1c9b83;}</style></defs><g id="Layer_2" data-name="Layer 2"><g id="elementos"><path d="M486,277.05c-13.8,0-26.45,0-39.09-.06a4.86,4.86,0,0,1-3.29-1.84c9.25-3,10.36-4.38,10.37-13.73q0-26,0-52c0-6.59-.48-12.94-8.93-14.45-.65-.11-1.07-1.53-1.7-2.5l34.29-1.57V202.1l.87.89c5.9-9.38,14.22-13.63,25-13.49,13,.18,18.22,3.38,22.82,15.28,4.19-7.35,9.69-13,17.94-14.15a61.33,61.33,0,0,1,17.32-.28c8.38,1.22,13.14,6.23,14,14.69.94,9.41.94,18.93,1.11,28.41.17,9.16,0,18.32,0,27.49,0,9.55,1.36,11.3,10.84,14.78-1.17.44-2.34,1.27-3.51,1.27-12.82.1-25.63.06-39.82.06,1.12-1.43,1.69-2.95,2.56-3.15,4.46-1,5.89-4.25,5.91-8.15.1-19.66.28-39.33-.06-59-.16-9.12-7.88-13-15.91-8.49-6.66,3.78-9.78,10.08-9.92,17.43-.29,15.66-.17,31.33,0,47,0,5.64,1.22,10.79,8.49,11.32.56,0,1,1.67,1.83,3.11-13.8,0-26.59,0-39.37-.06-.87,0-1.72-.91-2.58-1.39.59-.63,1.08-1.64,1.78-1.81,4.68-1.12,5.84-4.59,5.88-8.69q.21-18.5.24-37c0-7.33.1-14.67-.32-22-.5-8.6-6.45-12.06-14.25-8.36-7.23,3.42-10.37,9.77-10.47,17.42-.22,16-.16,32,0,48,0,4.72.43,9.57,6.64,10.75C485.13,274.13,485.39,275.7,486,277.05Z"/><path d="M318.24,277c1-1.4,1.54-2.95,2.3-3.08,5.44-.9,7.08-4.67,7.1-9.36.1-19,.29-38-.06-56.95-.18-9.6-7.68-13.77-16.4-9.61-7.09,3.38-10.06,9.65-10.18,17.07q-.36,24,0,48c.11,7.69,1.66,9.28,9.07,12.69-1.17.43-2.35,1.24-3.53,1.25-13,.09-25.95.05-40.75.05,1.59-1.58,2.34-3,3.3-3.16,5.37-.86,7.76-4.06,7.94-9.24.16-4.49.4-9,.41-13.46q.06-39.72,0-79.44a76.89,76.89,0,0,0-.72-9.94c-.57-4.3-2.64-7.42-7.22-8.51-1.14-.27-2.06-1.47-3.8-2.8l35.15-1.69v53.56c5.17-5.78,10.51-10.83,18.1-11.81a65.76,65.76,0,0,1,17.33-.21c8.14,1.15,13.2,6.7,14.25,15.2a195.69,195.69,0,0,1,1,21.4c.16,11.65,0,23.31.06,35,0,8.17,1.09,9.49,8.81,12,.72.24,1.22,1.15,1.83,1.75-1,.48-2,1.37-3,1.37-11,.08-22,0-33,0Z"/><path d="M616.56,203.87c10.93-13.92,23.94-17.94,36.66-12.07,8.85,4.08,13.74,11.52,16.15,20.5a77,77,0,0,1-.09,41A35.65,35.65,0,0,1,617,275.12c-6.28-3.51-12.35-.54-18.1,1.91-6.92,3-6.52,3.19-6.34-4.5.28-12.49.15-25,.16-37.49q0-33.75,0-67.49c0-6.8-.79-13.24-9.39-14.71-.57-.1-.94-1.34-1.61-2.36l34.82-1.71v55.1ZM648.36,235l-1.71-.28c0-3.82.48-7.72-.11-11.45-1-6.51-1.89-13.25-4.33-19.28-3.38-8.34-11.87-9.85-18.89-4.21-4.22,3.39-6.72,7.8-6.74,13.32-.05,18.46-.11,36.92.13,55.37a7.48,7.48,0,0,0,3.22,5.32c8.9,5.34,18.75,2.6,22-7.37S646.3,245.46,648.36,235Z"/><path d="M260,277.71c-.79-1.23-2-2.36-2.28-3.7-1.54-7.18-3-7.91-9.15-3.69-19.29,13.22-39.48,12.15-59.16,2.15-19.38-9.85-26.87-27.61-27.79-48.61-.78-18,3.19-34.29,15.34-48.16,16.33-18.64,51.34-25.09,72.2-8.31,4.91,4,6.71,3,8.36-3.19a22.81,22.81,0,0,1,2.24-4.4l1.54.65v29.82c0,2.33.14,4.68-.09,7-.09.91-1,1.74-1.57,2.61-.88-.76-2.32-1.37-2.55-2.29-1-4-1.42-8.19-2.48-12.2a31.78,31.78,0,0,0-37.06-22.68c-7.66,1.63-13.12,6.28-17,12.87-6.74,11.51-9,24.27-9.61,37.32-.66,14.73.66,29.26,6.66,43,6.07,13.93,16.27,20.89,29.18,19.85s26.37-11.74,28.24-25c.58-4.11,1.19-8.23,2.06-12.29.21-1,1.46-1.76,2.23-2.63.65.74,1.86,1.49,1.86,2.24.12,12.95.09,25.91.09,38.86Z"/><path d="M407.23,267.61c-6.11,8.52-15.69,12-27.13,10.54-15-2-22.32-19.6-12.79-31.51,3-3.72,7.44-6.65,11.8-8.77,7-3.42,14.46-5.88,21.74-8.7,5.69-2.2,8.42-6.14,7.85-12.36-.26-2.81,0-5.66-.07-8.49-.2-5.64-.83-11.37-6.58-14.14-6.14-2.94-12.27-1.87-18.52,1.86,1.2.9,2,1.56,2.89,2.15,6.52,4.43,8.46,12.46,4.38,18.24-3.87,5.5-13,7-18.35,3.07s-6.78-13.56-1.92-18.83a32.57,32.57,0,0,1,12.19-8.17c10.51-3.92,21.56-4,32.48-1.64,10.26,2.23,16,8.61,16.4,19.21.62,17.13.5,34.29.71,51.43,0,2.17.11,4.33.22,6.49.2,3.7,2,5,5.65,3.94.94-.27,2.13.32,3.21.52-.72.95-1.24,2.31-2.19,2.78-7.32,3.62-15.22,4.79-22.69,1.67C412.92,275.4,410.51,271,407.23,267.61Zm1.42-39.38c-5.12,3.7-9.58,6.79-13.91,10.05-7.59,5.71-9.12,13.49-7.06,22.24,1.21,5.12,5.64,7.91,10.91,7.31s10-5.15,10-9.87C408.7,248.34,408.65,238.71,408.65,228.23Z"/><path d="M751.49,226c-15.18,0-28.66.2-42.12-.11-4.75-.11-6.31,1.51-5.72,6,.73,5.59.76,11.33,2.11,16.75,2.07,8.32,6.74,15.12,15.72,17s16.6-1.59,22.67-8.49a33.25,33.25,0,0,1,4.54-3.67c-.27,2.07,0,4.39-.9,6.18-7.1,14.88-20.84,22.15-36.72,19.69-17.59-2.73-28.58-13.72-31.29-31.35-1.7-11-1.51-21.89,1.94-32.56,6.89-21.33,31.9-32.43,52.4-23.29C740.35,194.9,745,199.51,747,206,749,212.15,749.91,218.69,751.49,226Zm-49.07-3.12h28.31c-1.36-7.83-2.32-14.84-3.88-21.71-.94-4.16-3.21-8-8.14-8.27s-8.39,3-9.87,7.08C706.29,207.07,704.71,214.5,702.42,222.88Z"/><path d="M825.52,278.34V246.08l1.76-.69a34.61,34.61,0,0,1,2.26,4.41c2,5.6,2.94,11.78,6,16.71,2.3,3.74,6.82,6.66,11,8.58a11.57,11.57,0,0,0,13.41-2.62c3.83-3.89,4.12-9,2-13.49a39.23,39.23,0,0,0-8.51-11.38c-5.78-5.49-12.29-10.2-18.28-15.48-5-4.39-8.62-9.78-9.36-16.57-1.28-11.82,4-20.13,15.7-24,10.52-3.51,21.07-3,30.94,2.33,3.88,2.11,6.39,2.51,8-2.26.25-.74,1.23-1.24,1.87-1.85.5.87,1.44,1.73,1.45,2.6.11,8.64.07,17.28.07,25.92l-1.58.83c-.87-1-2-1.91-2.53-3.09-2.2-5.17-3.61-10.76-6.42-15.55-3.61-6.15-9.86-8.38-16.83-7.23-9.11,1.5-12.43,11.41-6,18.89,3.62,4.24,8.4,7.51,12.76,11.1,5,4.12,10.28,7.93,15.16,12.19,7.44,6.5,10.88,14.69,8.65,24.57-2.32,10.25-9.73,15.46-19.29,18.13-9.84,2.74-19.42,2.14-28.6-2.62-4.12-2.13-8.45-5.41-10.86,2.06C828.08,278.08,826.36,278.11,825.52,278.34Z"/><path d="M750.16,274.8c10.63-2.56,11.81-4,11.83-13.42q.06-25.74,0-51.48c0-6.71-.26-13.34-9-14.93-.64-.12-1-1.58-1.58-2.49l34.39-1.59V204c2.09-2.68,3.21-4.2,4.41-5.65,5.78-7,13.24-9.87,22.19-8.48,6,.93,9.23,5,10.59,10.58,1.44,5.92.49,11.4-4.44,15.4-4.46,3.61-9.65,3.45-14.62,1.19-5.71-2.59-7.3-10.15-3.62-16.44a54.86,54.86,0,0,1,3.83-5.11l-.67-1.35c-3.2,1.54-6.86,2.53-9.5,4.73-5.49,4.6-8.07,10.9-8.09,18.1,0,13.33,0,26.66,0,40,0,13.09,2.29,15.69,16,18.28-1,.69-2.06,2-3.1,2q-22.21.12-44.44-.13C753.34,277.05,752.33,276,750.16,274.8Z"/><path class="cls-1" d="M919.22,418.17c12.15-35.34,31.93-62,70.06-69.59,17.33-3.45,34.75-2,51.74,3.29,2.13.66,3.74,1.18,2.73,4.06-11.39,32.38-30.55,57.21-65.47,66.06C958.57,427,939.12,424.21,919.22,418.17Z"/><path class="cls-1" d="M130.44,418.5c-7.42,1.62-13.83,3.26-20.32,4.37-19.12,3.26-37.87,2-55.47-6.66C29.37,403.74,14.71,382.36,5.74,356.4c-1-2.92,0-3.8,2.57-4.54,45.59-13,91.32-1.76,114.91,48.94C125.73,406.19,127.73,411.82,130.44,418.5Z"/><path class="cls-1" d="M851.5,482.34c40.91-50.41,97.56-49.53,139.54-12.17C955.92,516.05,897.74,524,851.5,482.34Z"/><path class="cls-1" d="M134.29,10.79c39.14,45.76,36.16,100.51-12.16,139.9C83,107.62,85.22,50,134.29,10.79Z"/><path class="cls-1" d="M915.09,10.79c46.47,37.35,53.16,93,12.53,139.79C881.79,115.38,873.47,59,915.09,10.79Z"/><path class="cls-1" d="M58.06,470.39c42.91-38.31,100.05-37.68,139.61,11.88C156.82,520,99,520.84,58.06,470.39Z"/><path class="cls-1" d="M1.35,224.39c32.7,3.69,60.56,15.13,78.16,44.47a85.22,85.22,0,0,1,11.8,40.24c.32,6.6.19,13.22.28,19.83,0,2.89-1.54,3.79-4.17,3.43-29.22-4-55.15-14.1-72.15-40C2.43,272.79-.86,250.82.18,227.92.22,227,.78,226.06,1.35,224.39Z"/><path class="cls-1" d="M961.16,238.74c-28.42-50.4-15-106.86,42.3-134.18,11.49,22.69,17.51,46.27,11.45,71.57C1007.78,205.9,987.17,224.46,961.16,238.74Z"/><path class="cls-1" d="M1049.25,224.33c0,6.46.26,12.21,0,17.94-.94,17.86-5.12,34.83-15,50-14.41,22-35.78,33.05-60.83,38.15-2.76.56-5.57.86-8.34,1.37-6.76,1.24-7.66,1-7.77-5.62-.49-28.14,5-54.37,26.26-74.85,14.46-13.94,32.24-21.44,51.76-25.12C1039.31,225.43,1043.45,225.08,1049.25,224.33Z"/><path class="cls-1" d="M88.58,238.31c-50.79-18.18-73.93-91.59-42.32-133.37C99,129.14,118.45,183.87,88.58,238.31Z"/><path class="cls-1" d="M763.7,516c54.87-30.1,108.75-10.5,133.64,42.07C851.15,584.39,793.82,576.58,763.7,516Z"/><path class="cls-1" d="M285.62,515.93C256,575.84,199.06,584.77,152,558.08,176.28,506.41,229.77,485.47,285.62,515.93Z"/><path class="cls-1" d="M760.78,604.2c-20.34-8-33.58-21.3-38.64-42-2.89-11.83-2.3-23.71.06-35.56,1.18-5.93,1.73-6.25,7-3.64,19.86,9.73,31.45,25.27,34.29,47.5C765,581.78,763.05,592.54,760.78,604.2Z"/><path class="cls-1" d="M289,604c-11.55-36.3,3-72.29,36.58-82.75,4.46,17.47,5.12,34.63-2.16,51.48C316.69,588.3,304.53,597.91,289,604Z"/><path class="cls-1" d="M296.15,42.27,317.92,73.9c1.36-2.81,2.46-4.74,3.27-6.79,8.16-20.72,16.53-41.38,24.24-62.27,2.24-6.07,6.45-4.24,10.45-4.7,3.73-.43,5.65,1,7,4.56,8.22,21.42,16.68,42.75,25,64.12.59,1.51,1.07,3.06,1.61,4.6C379.8,76.26,377.19,75,373.86,66c-4.47-12-1.49-10.24-14.85-10.4-5.33-.07-10.67.11-16-.05-3.29-.1-5.06,1.06-6.29,4.27-6.63,17.31-2.43,13.78-21.29,14.73-9,.45-14.76-2.33-18.81-10.34-2.77-5.46-6.53-10.45-10.18-15.4A10.83,10.83,0,0,0,281,44.93c-5.53-1.5-7.16,0-7.18,5.74,0,6.17-.25,12.34.08,18.49.24,4.33-1.47,5.72-5.48,5.22a19.1,19.1,0,0,0-4,0c-2.81.21-3.81-1-3.8-3.82.06-22.16,0-44.33.17-66.49,0-1.3,2-3.69,3-3.69,9.63,0,19.36-.39,28.87.81,11.95,1.5,17.36,7.32,19,17.88,1.3,8.43-4,17.16-13.28,22ZM273.85,23h0a87.48,87.48,0,0,0,.11,9.45c.14,1.27,1.66,3.51,2.33,3.43,5.81-.71,11.94-1,17.26-3.09,5.51-2.23,5.66-8.17,5-13.45-.63-4.84-4-7.51-8.52-8.63a38.93,38.93,0,0,0-8.34-1c-7.83-.21-7.83-.13-7.84,7.86ZM366.8,46.79l-12-33-1.3.17L341.76,46.79Z"/><path class="cls-1" d="M407.82,23.5c0,15.11-.16,30.23.1,45.33.08,4.44-1.28,5.7-5.65,5.67s-5.83-1-5.77-5.57c.23-20.82.05-41.65.17-62.48,0-2.06.75-5.64,1.78-5.89,3.44-.83,7.13-1.06,9.88,2.61,6.29,8.39,12.87,16.57,19.35,24.82a262.73,262.73,0,0,0,19.6,23c.1-1.53.3-3.06.3-4.58,0-13.67.22-27.34-.09-41-.11-4.81,1.9-5.38,5.92-5.37s5.57.82,5.53,5.23c-.23,21-.06,42-.17,63,0,2-.76,5.52-1.46,5.59a20.39,20.39,0,0,1-8.58-1c-1.49-.51-2.52-2.54-3.65-4q-17-21.62-33.91-43.26c-.71-.9-1.39-1.82-2.09-2.74Z"/><path class="cls-1" d="M737.59,23.5c0,15.11-.16,30.23.1,45.33.08,4.44-1.28,5.7-5.65,5.67s-5.83-1-5.78-5.57c.23-20.82,0-41.65.18-62.48,0-2.06.75-5.64,1.78-5.89,3.44-.83,7.12-1.06,9.88,2.61C744.39,11.56,751,19.74,757.44,28A266.22,266.22,0,0,0,777,51c.11-1.53.31-3.06.31-4.58,0-13.67.22-27.34-.09-41-.12-4.81,1.9-5.38,5.92-5.37s5.57.82,5.52,5.23c-.22,21-.06,42-.16,63,0,2-.76,5.52-1.46,5.59a20.39,20.39,0,0,1-8.58-1c-1.5-.51-2.52-2.54-3.65-4q-17-21.62-33.91-43.26c-.71-.9-1.39-1.82-2.09-2.74Z"/><path class="cls-1" d="M597.6,36.78c0-10.67,0-21.33,0-32,0-2.11-.47-4.66,2.95-4.58C611.69.48,623-.23,633.92,1.33,652.86,4,663.28,18.76,662.85,40c-.34,17.32-12.59,31.35-30.37,33.41-10.36,1.2-20.92.66-31.38,1-3.57.12-3.52-2.12-3.51-4.6Q597.62,53.27,597.6,36.78Zm12.5,0c0,7.65-.17,15.31.15,22.95.07,1.52,2,4.13,3.17,4.23a76.51,76.51,0,0,0,15.94,0c9.83-1.28,16.56-7,19-16.65A48.39,48.39,0,0,0,649.46,32c-1-13-10.66-21.57-23.53-21.63-3.66,0-7.34.2-11-.06-3.82-.26-5,1.47-4.9,5C610.18,22.46,610.09,29.61,610.1,36.77Z"/><path class="cls-1" d="M531.57.86,504.26,34.38c9.76,13,19.48,25.93,29.34,39.05-10.29,2.65-13.85,1.46-19.69-6.24-5.14-6.76-10.43-13.42-15.37-20.32-3.29-4.6-7.25-6.66-13.69-4.84V58c0,3.16,0,6.33,0,9.49,0,6.85,0,6.85-6.71,6.85-6.47,0-6.47,0-6.47-6.59,0-20.65.11-41.31-.1-62,0-4.27.95-5.91,5.52-5.72,7.75.34,7.76.06,7.76,7.88,0,6.67.1,13.33,0,20-.06,3.56,1.85,4.7,4.7,3.61a16.33,16.33,0,0,0,6.4-4.32c5.05-6,10.3-11.9,14.44-18.49C515.38.75,522-1.43,531.57.86Z"/><path class="cls-1" d="M541.6,37.15c0-10.83.11-21.66-.07-32.49-.06-3.53,1.2-4.59,4.64-4.55,12.5.17,25,.22,37.49,0,4.46-.08,4.12,2.48,4.22,5.46.1,3.18-.49,5-4.31,4.89-8.33-.23-16.66,0-25-.12-3.24-.06-4.56,1.18-4.49,4.35.08,4.5.07,9,0,13.49,0,3,1.28,4.12,4.26,4,5.66-.14,11.33,0,17-.06,3.29-.07,5.6-.06,5.66,4.56.07,4.88-2.36,5-5.89,4.91-5.33-.13-10.67.08-16-.06-3.63-.1-5.18,1.4-5.06,5q.2,6.49,0,13c-.1,3.37,1.18,4.74,4.69,4.66,8.16-.19,16.33.12,24.49-.14,4-.13,4.74,1.59,4.65,5.06-.07,3.21-.21,5.35-4.45,5.27-12.49-.23-25-.2-37.48,0-3.72.06-4.46-1.52-4.42-4.78C541.68,58.81,541.6,48,541.6,37.15Z"/><path class="cls-1" d="M701,47.23c.06-10.64-.16-21.28.07-31.91.06-2.54,0-8.73-.06-12.38A2.76,2.76,0,0,1,703.73.13h7.42a2.77,2.77,0,0,1,2.78,2.73c.05,3.62.14,9.82.16,12.19.13,17.65.06,35.3,0,53,0,6.35,0,6.35-6.71,6.34-6.92,0-6.44,0-6.47-8.08C700.93,59.92,700.91,53.58,701,47.23Z"/><path d="M801,317H267.32v-.76H801.09Z"/><path class="cls-1" d="M440.75,582.26a16.17,16.17,0,0,1-.3,2.85A292.13,292.13,0,0,0,437,615.86q-18-.6-35.1-.6c-.6,0-1.8,0-3.6.08q-3.6.07-6,.07l-19.95.34c-.7,0-1.45,0-2.25.11h-1.2c-3.6,0-5.4-.59-5.4-1.79q0-1.2,2.25-3a257.86,257.86,0,0,0,31-28.53q12.67-14,12.67-35.12,0-14.07-6.75-21.57-4.8-5.24-12.9-5.24a16.47,16.47,0,0,0-11.17,3.83q-4.43,3.82-4.43,8a2.77,2.77,0,0,0,2.08,3c.5.1,1.94.25,4.31.45a10.63,10.63,0,0,1,7.44,3.38A11,11,0,0,1,390.8,547a10.77,10.77,0,0,1-2.68,7.58,9.05,9.05,0,0,1-7,2.92,11.19,11.19,0,0,1-9.17-4.35q-3.49-4.35-3.5-11.55,0-12.29,8.33-19.27t22.87-7q15,0,24.45,8.31t9.45,21.49q0,25.9-47.85,52.1h18.6q16.35-.15,21.15-.75c4.3-.41,7.2-1.41,8.7-3q1.65-2,2.85-8.17.9-5.14,2.4-5.15T440.75,582.26Z"/><path class="cls-1" d="M523,567.11q0,21.92-10.65,36t-27,14.1q-16.35,0-27.9-14.85t-11.55-35.85q0-28,17.55-43.2a32.07,32.07,0,0,1,21.75-7.95q11.4,0,19.35,6.15,8.4,6.62,13.43,18.9A69.92,69.92,0,0,1,523,567.11Zm-24.75-2.55q0-31.74-4.65-41.23a9.08,9.08,0,0,0-8.7-5.42q-7.65,0-10.8,10.54-3.45,11.58-3.45,34,0,35.67,6.6,46.65,3.3,5.56,8.25,5.56,7.5,0,10.05-10.68Q498.2,592.7,498.2,564.56Z"/><path class="cls-1" d="M592.7,614.36c0,.81-1.3,1.2-3.9,1.2h-3.6q-2.1-.15-16.5,0H543.35c-2.5,0-3.75-.44-3.75-1.34,0-.6.25-1,.74-1.05a55.62,55.62,0,0,1,5.8-.15c4.35-.1,7-.64,8-1.64a7.42,7.42,0,0,0,.89-4v-55.6q0-17.79-.3-19.29-.43-2.38-4.16-2.39H543c-2.57.1-3.86-.3-3.86-1.2q0-.9,4.93-1.35,12.7-1,21.67-6.3l5.38-3.45,5.67-3.45.6,2.25v90.6q.15,6,6,5.85Q592.7,612.71,592.7,614.36Z"/><path class="cls-1" d="M681.35,559.31a59.43,59.43,0,0,1-8.77,31.8,56.06,56.06,0,0,1-24.23,21.6q-12.3,5.85-30.75,5.85-3.15,0-3.15-1t2.7-1a38.13,38.13,0,0,0,15.9-4.35q9.45-4.64,16.35-15.45a49.82,49.82,0,0,0,8-22.65q-8.55,7.2-17.85,7.2-13.5,0-22.27-8.7t-8.78-22q0-15,9.83-25t24.52-10A37.9,37.9,0,0,1,664.1,522Q681.35,533.52,681.35,559.31Zm-23.55-4.85a89.64,89.64,0,0,0-2.7-23.61q-3.45-12.79-11.7-12.79-5.85,0-8.25,6t-2.4,20.6q0,31.59,13.65,31.58,6,0,8.7-6.39A39.53,39.53,0,0,0,657.8,554.46Z"/><path d="M117.88,677.77c-5.46.23-6.53,1.06-6.53,6.92v40.87c0,5,.83,5.74,5.07,5.74h3.93c7.43,0,13.09-7.23,14.67-18h1.84c-.15,1.85-.23,4.32-.23,7.07,0,2.52.08,7.71.55,12.74-5.46-.24-13-.24-18.44-.24s-17.45,0-26.21.24v-1.61c5.11-.24,6-1.06,6-6.92V684.69c0-5.86-.94-6.69-6-6.92v-1.61c2.71.15,7.54.23,12.69.23,4.68,0,9.67-.08,12.66-.23Z"/><path d="M181,724.42c0,4.8,1.26,7.08,5.15,7.08v1.69c-1.69-.16-3.38-.24-5-.24a52.51,52.51,0,0,0-11.75,1.1v-7.27c-2.63,5.39-7.43,7.51-13,7.51-4.44,0-7.12-1.3-8.81-3.18s-2.43-5.11-2.43-10.42v-20.4c0-4.84-1.26-7.11-5.15-7.11v-1.69c1.69.15,3.38.27,5,.27a52,52,0,0,0,11.75-1.14V724c0,4,.79,6.76,4.8,6.76,4.28,0,7.82-4,7.82-9.31V700.29c0-4.84-1.26-7.11-5.15-7.11v-1.69c1.69.15,3.38.27,5,.27A51.76,51.76,0,0,0,181,690.62Z"/><path d="M233,710.47c0,15.64-7.35,23.82-18.63,23.82a12.83,12.83,0,0,1-8.26-2.59v8c0,5,2.71,6.29,7.24,6.29v1.69c-2.72-.08-8.06-.35-13.53-.35-3.93,0-8.13.27-10.14.35V746c3.54,0,4.84-1.22,4.84-5.5V700.33c0-4.84-1.26-7.08-5.15-7.08v-1.69c1.69.16,3.38.24,5,.24a49.57,49.57,0,0,0,11.75-1.14v7.55c2.24-5.11,6.8-7.83,12.5-7.83C226.74,690.38,233,697.07,233,710.47ZM220.8,712c0-13.68-2.75-18.2-7-18.2-3.54,0-6.8,2.56-7.79,7.12v29a6.54,6.54,0,0,0,5.11,2.16C218.33,732.09,220.8,724.42,220.8,712Z"/><path d="M254.73,725.68c0,4.48,1.38,5.78,5.15,5.78v1.69c-2-.08-6.56-.31-10.77-.31s-9,.23-11.12.31v-1.69c3.73,0,5.15-1.3,5.15-5.78V700.29c0-4.84-1.26-7.11-5.15-7.11v-1.69c1.69.15,3.38.27,5,.27a52,52,0,0,0,11.75-1.14Zm1-48.74c0,3.89-2.87,6.25-7.31,6.25s-7.35-2.36-7.35-6.25,2.83-6.21,7.35-6.21S255.72,673.09,255.72,676.94Z"/><path d="M294.36,692.86a8.73,8.73,0,0,1,4.44,7.51,6.18,6.18,0,0,1-6.37,6.48c-3.81,0-6.21-2.35-6.21-6a6.91,6.91,0,0,1,5.31-6.6,6.23,6.23,0,0,0-4.84-1.93c-6.68,0-10.18,8.14-10.18,19.06,0,12.5,5.35,16.24,10.66,16.24,3,0,7.27-1.18,10.53-6.57l1.42.51c-1.85,6-6.81,12.7-16,12.7-10.5,0-18.75-6.64-18.75-21.74,0-14.54,8.49-22.17,19.89-22.17A19.66,19.66,0,0,1,294.36,692.86Z"/><path d="M320.07,725.68c0,4.48,1.38,5.78,5.15,5.78v1.69c-2-.08-6.56-.31-10.77-.31s-9,.23-11.12.31v-1.69c3.73,0,5.15-1.3,5.15-5.78V700.29c0-4.84-1.26-7.11-5.15-7.11v-1.69c1.69.15,3.38.27,5,.27a52,52,0,0,0,11.75-1.14Zm1-48.74c0,3.89-2.87,6.25-7.31,6.25s-7.36-2.36-7.36-6.25,2.83-6.21,7.36-6.21S321.06,673.09,321.06,676.94Z"/><path d="M367.48,693.53c1.77,2,2.52,5,2.52,10.45v21.7c0,4.48,1.41,5.78,5.15,5.78v1.69c-2-.08-6.68-.31-10.62-.31-4.12,0-8.49.23-10.45.31v-1.69c3.18,0,4.32-1.3,4.32-5.78v-25c0-4-.94-6.72-4.95-6.72-4.52,0-8,4-8,9.32v22.44c0,4.48,1.14,5.78,4.33,5.78v1.69c-1.89-.08-6.06-.31-10-.31-4.13,0-9,.23-11.08.31v-1.69c3.73,0,5.15-1.3,5.15-5.78V700.29c0-4.84-1.26-7.11-5.15-7.11v-1.69c1.69.15,3.38.27,5,.27a52,52,0,0,0,11.75-1.14v7.27c2.67-5.46,7.47-7.51,13.13-7.51C363.2,690.38,365.83,691.64,367.48,693.53Z"/><path d="M394.89,725.68c0,4.48,1.38,5.78,5.15,5.78v1.69c-2.05-.08-6.57-.31-10.77-.31s-9,.23-11.13.31v-1.69c3.74,0,5.15-1.3,5.15-5.78V700.29c0-4.84-1.25-7.11-5.15-7.11v-1.69c1.69.15,3.38.27,5,.27a52,52,0,0,0,11.75-1.14Zm1-48.74c0,3.89-2.87,6.25-7.31,6.25s-7.35-2.36-7.35-6.25,2.83-6.21,7.35-6.21S395.87,673.09,395.87,676.94Z"/><path d="M444,712.36c0,16-8.14,21.93-19.73,21.93s-19.7-6-19.7-21.93,8.14-22,19.7-22S444,696.44,444,712.36Zm-27.28,0c0,14.42,3.18,20.32,7.55,20.32s7.58-5.9,7.58-20.32S428.7,692,424.3,692,416.75,698,416.75,712.36Z"/><path d="M493.45,677.77c-5.15.23-6.06,1.06-6.06,6.92v39.93c0,5.86.95,6.68,6.06,6.92v1.61c-2.91-.16-7.71-.24-12.19-.24-5.15,0-10,.08-12.69.24v-1.61c5.11-.24,6-1.06,6-6.92V684.69c0-5.86-.94-6.69-6-6.92v-1.61c2.71.15,7.54.23,12.69.23,4.48,0,9.28-.08,12.19-.23Z"/><path d="M536.85,693.53c1.77,2,2.51,5,2.51,10.45v21.7c0,4.48,1.42,5.78,5.15,5.78v1.69c-2-.08-6.68-.31-10.61-.31-4.13,0-8.49.23-10.46.31v-1.69c3.19,0,4.33-1.3,4.33-5.78v-25c0-4-.95-6.72-4.95-6.72-4.52,0-8,4-8,9.32v22.44c0,4.48,1.14,5.78,4.32,5.78v1.69c-1.89-.08-6-.31-10-.31-4.13,0-9,.23-11.09.31v-1.69c3.74,0,5.15-1.3,5.15-5.78V700.29c0-4.84-1.26-7.11-5.15-7.11v-1.69c1.69.15,3.38.27,5,.27a52.09,52.09,0,0,0,11.76-1.14v7.27c2.67-5.46,7.47-7.51,13.13-7.51C532.56,690.38,535.2,691.64,536.85,693.53Z"/><path d="M573.33,691.56v1.62h-9.51v32.46c0,3.3,1.18,4.48,3.54,4.48,2,0,3.93-1.25,5.5-4.83l1.34.75c-1.77,4.79-5.07,8.25-11,8.25-3.61,0-6.25-.9-8.05-2.71-2.32-2.36-2.91-5.62-2.91-11.24V693.18h-6.76v-1.62h6.76V680.91a24,24,0,0,0,11.59-2.59v13.24Z"/><path d="M609.74,721.2l1.45.55c-1.92,6-7.19,12.54-16.11,12.54-10.85,0-18.56-6.84-18.56-21.54,0-14.94,8.26-22.37,19.7-22.37,9.39,0,15.13,5.27,15.13,17.89H588.83c-.12,1.18-.16,2.51-.16,3.81,0,11.2,5.39,15.57,10.49,15.57C602.39,727.65,606.47,726.55,609.74,721.2Zm-21.15-14.46h12.62c.16-7.87-1.53-14.63-5.47-14.63C592.13,692.11,589.26,696.32,588.59,706.74Z"/><path d="M650.62,697.81c0,4-2.47,6.76-6.25,6.76s-6-2-6-5.18a7.15,7.15,0,0,1,3.54-6.21,3,3,0,0,0-1.06-.2,4,4,0,0,0-1.14.2c-4.29.7-7.31,6.05-7.31,10.37v21.31c0,5.18,2.47,6.6,7.54,6.6v1.69c-2.47-.08-7.7-.31-12.77-.31-4.4,0-9.32.23-11.52.31v-1.69c3.74,0,5.15-1.3,5.15-5.78V700.29c0-4.84-1.26-7.11-5.15-7.11v-1.69c1.69.15,3.38.27,5,.27a52.09,52.09,0,0,0,11.76-1.14v7.51c1.92-4.33,5.81-7.75,10.88-7.75C648.5,690.38,650.62,694.2,650.62,697.81Z"/><path d="M692,693.53c1.77,2,2.52,5,2.52,10.45v21.7c0,4.48,1.41,5.78,5.15,5.78v1.69c-2-.08-6.69-.31-10.62-.31-4.12,0-8.49.23-10.45.31v-1.69c3.18,0,4.32-1.3,4.32-5.78v-25c0-4-.94-6.72-4.95-6.72-4.52,0-8,4-8,9.32v22.44c0,4.48,1.14,5.78,4.32,5.78v1.69c-1.88-.08-6-.31-10-.31-4.13,0-9,.23-11.09.31v-1.69c3.74,0,5.15-1.3,5.15-5.78V700.29c0-4.84-1.25-7.11-5.15-7.11v-1.69c1.7.15,3.39.27,5,.27A52,52,0,0,0,670,690.62v7.27c2.67-5.46,7.47-7.51,13.13-7.51C687.7,690.38,690.33,691.64,692,693.53Z"/><path d="M733.62,694c2.35,2.44,2.87,5.66,2.87,11.28v21.9c0,2.59.43,3.57,1.73,3.57a4.9,4.9,0,0,0,2.94-1.37l.83,1.37c-2.44,2-5.11,3-9.2,3-5.89,0-7.7-3.07-7.74-6.52a13.59,13.59,0,0,1-11.87,6.52c-6,0-10.18-3.3-10.18-9.16s3.85-9.08,11.32-11.83c5.93-2.24,10.57-3.77,10.57-7.23v-6.29c0-4.21-1.81-7.19-6.56-7.19a8.51,8.51,0,0,0-5.74,2,6.38,6.38,0,0,1,4.75,6.33c0,3.34-2.59,5.78-6.56,5.78-3.5,0-5.7-2.67-5.7-6.21,0-3,1.89-5.19,4.52-6.72,2.87-1.62,6.8-2.76,12.22-2.76C727,690.38,731,691.33,733.62,694Zm-8.73,14.78c-.75,1.22-2.28,2.28-5,4-2.83,2.08-5.46,4.72-5.46,9.55,0,4.44,2.16,6.25,5,6.25,2,0,3.73-.86,5.42-3.26Z"/><path d="M770.14,691.56v1.62h-9.51v32.46c0,3.3,1.18,4.48,3.54,4.48,2,0,3.93-1.25,5.5-4.83L771,726c-1.77,4.79-5.07,8.25-11,8.25-3.62,0-6.25-.9-8.06-2.71-2.32-2.36-2.91-5.62-2.91-11.24V693.18h-6.76v-1.62H749V680.91a24,24,0,0,0,11.6-2.59v13.24Z"/><path d="M789.37,725.68c0,4.48,1.37,5.78,5.15,5.78v1.69c-2-.08-6.57-.31-10.77-.31s-9,.23-11.13.31v-1.69c3.74,0,5.15-1.3,5.15-5.78V700.29c0-4.84-1.26-7.11-5.15-7.11v-1.69c1.69.15,3.38.27,5,.27a52,52,0,0,0,11.76-1.14Zm1-48.74c0,3.89-2.87,6.25-7.31,6.25s-7.35-2.36-7.35-6.25,2.83-6.21,7.35-6.21S790.35,673.09,790.35,676.94Z"/><path d="M838.51,712.36c0,16-8.14,21.93-19.74,21.93s-19.69-6-19.69-21.93,8.14-22,19.69-22S838.51,696.44,838.51,712.36Zm-27.28,0c0,14.42,3.18,20.32,7.54,20.32s7.59-5.9,7.59-20.32S823.18,692,818.77,692,811.23,698,811.23,712.36Z"/><path d="M882.26,693.53c1.77,2,2.52,5,2.52,10.45v21.7c0,4.48,1.41,5.78,5.15,5.78v1.69c-2-.08-6.68-.31-10.62-.31-4.12,0-8.49.23-10.45.31v-1.69c3.18,0,4.32-1.3,4.32-5.78v-25c0-4-.94-6.72-4.95-6.72-4.52,0-8,4-8,9.32v22.44c0,4.48,1.14,5.78,4.32,5.78v1.69c-1.88-.08-6.05-.31-10-.31-4.13,0-9,.23-11.08.31v-1.69c3.73,0,5.15-1.3,5.15-5.78V700.29c0-4.84-1.26-7.11-5.15-7.11v-1.69c1.69.15,3.38.27,5,.27a52,52,0,0,0,11.75-1.14v7.27c2.67-5.46,7.47-7.51,13.13-7.51C878,690.38,880.61,691.64,882.26,693.53Z"/><path d="M923.9,694c2.36,2.44,2.87,5.66,2.87,11.28v21.9c0,2.59.43,3.57,1.73,3.57a5,5,0,0,0,3-1.37l.82,1.37c-2.44,2-5.11,3-9.2,3-5.89,0-7.7-3.07-7.74-6.52a13.59,13.59,0,0,1-11.87,6.52c-6,0-10.18-3.3-10.18-9.16s3.85-9.08,11.32-11.83c5.93-2.24,10.57-3.77,10.57-7.23v-6.29c0-4.21-1.81-7.19-6.56-7.19a8.51,8.51,0,0,0-5.74,2c2.87,1,4.76,3.07,4.76,6.33s-2.6,5.78-6.57,5.78c-3.5,0-5.7-2.67-5.7-6.21,0-3,1.89-5.19,4.52-6.72,2.87-1.62,6.8-2.76,12.23-2.76C917.3,690.38,921.3,691.33,923.9,694Zm-8.73,14.78c-.74,1.22-2.28,2.28-5,4-2.83,2.08-5.46,4.72-5.46,9.55,0,4.44,2.16,6.25,5,6.25,2,0,3.73-.86,5.42-3.26Z"/><path d="M951,725.68c0,4.48,1.41,5.78,5.15,5.78v1.69c-2.05-.08-6.57-.31-10.73-.31s-9,.23-11.17.31v-1.69c3.78,0,5.15-1.3,5.15-5.78V679.81c0-4.83-1.25-7.11-5.15-7.11V671c1.69.15,3.38.23,5,.23a51.93,51.93,0,0,0,11.75-1.1Z"/><path d="M375.07,774.39c-5.46.23-6.52,1.06-6.52,6.91v40.88c0,5,.82,5.74,5.07,5.74h3.93c7.43,0,13.09-7.23,14.66-18h1.85c-.16,1.85-.24,4.32-.24,7.07,0,2.52.08,7.71.55,12.74-5.46-.24-13-.24-18.43-.24s-17.46,0-26.22.24v-1.61c5.11-.24,6-1.06,6-6.92V781.3c0-5.85-.94-6.68-6-6.91v-1.61c2.71.15,7.55.23,12.7.23,4.67,0,9.66-.08,12.65-.23Z"/><path d="M429.13,790.62c2.36,2.44,2.87,5.66,2.87,11.28v21.89c0,2.6.43,3.58,1.73,3.58a4.9,4.9,0,0,0,2.94-1.37l.83,1.37c-2.44,2-5.11,3-9.2,3-5.89,0-7.7-3.07-7.74-6.53a13.58,13.58,0,0,1-11.87,6.53c-6,0-10.18-3.3-10.18-9.16s3.85-9.08,11.32-11.83c5.93-2.24,10.57-3.77,10.57-7.23v-6.29c0-4.21-1.81-7.2-6.56-7.2a8.52,8.52,0,0,0-5.74,2,6.38,6.38,0,0,1,4.75,6.33c0,3.34-2.59,5.78-6.56,5.78-3.5,0-5.7-2.68-5.7-6.21,0-3,1.89-5.19,4.52-6.72,2.87-1.62,6.8-2.76,12.23-2.76C422.52,787,426.53,788,429.13,790.62ZM420.4,805.4c-.75,1.22-2.28,2.28-5,4-2.83,2.08-5.46,4.72-5.46,9.55,0,4.44,2.16,6.25,5,6.25,2,0,3.73-.86,5.42-3.26Z"/><path d="M500.48,788.1v1.69c-2.05.52-4,2.05-5.54,6.92l-10.7,33.22c-.86-.08-1.76-.12-2.63-.12s-1.73,0-2.59.12l-10.93-29.88-8.92,29.88c-.87-.08-1.73-.12-2.6-.12s-1.77,0-2.63.12L441.2,794.31c-1.57-4.24-3.53-4.52-4.67-4.52V788.1a106.82,106.82,0,0,0,11.43.51c3.31,0,7.28-.23,10.5-.51v1.69c-2.95,0-5.07.12-5.07,2.4a7.84,7.84,0,0,0,.43,2.16l7.27,22.8L469.82,788h0c.9.07,1.81.11,2.75.11s2.08,0,3.11-.11l10.45,30.73,5.11-16.15a20.52,20.52,0,0,0,1.06-6.05c0-4.45-2.4-6.45-6.29-6.77V788.1c2.48.24,6.09.32,8.26.32A45.46,45.46,0,0,0,500.48,788.1Z"/><path d="M562.16,785c0,2.4.08,4.64.24,6.13h-1.85c-2.12-12.5-6.33-16.51-13.83-16.51H544c-4.67,0-5.54.71-5.54,5.74v20.28h2.83c6.45,0,8.73-6.29,9.55-10.65h1.89c-.24,3.54-.31,5.94-.31,7.82,0,1.38,0,2.52,0,3.62,0,2.67.07,5.31.51,11.44h-1.85c-.87-5.62-3.38-10.62-9.83-10.62H538.5v18.52c0,6.29,1.46,7.15,8.61,7.23v1.77c-3.3-.12-8.92-.24-14.66-.24-4.64,0-9.28.12-12.78.24v-1.61c5.11-.24,6-1.06,6-6.92V781.3c0-5.85-1-6.68-6-6.91v-1.61c8.77.23,20.84.23,26.22.23,4.92,0,11.87,0,16.83-.23C562.32,777.65,562.16,782.6,562.16,785Z"/><path d="M583.36,822.3c0,4.48,1.38,5.78,5.15,5.78v1.69c-2-.08-6.56-.32-10.77-.32s-9,.24-11.12.32v-1.69c3.73,0,5.15-1.3,5.15-5.78V796.91c0-4.84-1.26-7.12-5.15-7.12V788.1c1.69.16,3.38.28,5,.28a52,52,0,0,0,11.75-1.14Zm1-48.74c0,3.89-2.87,6.25-7.31,6.25s-7.35-2.36-7.35-6.25,2.83-6.21,7.35-6.21S584.34,769.71,584.34,773.56Z"/><path d="M627,794.43c0,4-2.48,6.76-6.25,6.76s-6-2-6-5.19a7.2,7.2,0,0,1,3.54-6.21,3.18,3.18,0,0,0-1.06-.19,4.38,4.38,0,0,0-1.14.19c-4.29.71-7.31,6.06-7.31,10.38v21.31c0,5.18,2.47,6.6,7.55,6.6v1.69c-2.48-.08-7.71-.32-12.78-.32-4.4,0-9.31.24-11.52.32v-1.69c3.74,0,5.15-1.3,5.15-5.78V796.91c0-4.84-1.26-7.12-5.15-7.12V788.1c1.69.16,3.38.28,5,.28a52,52,0,0,0,11.75-1.14v7.51c1.92-4.33,5.82-7.75,10.89-7.75C624.87,787,627,790.82,627,794.43Z"/><path d="M694.3,822.3c0,4.48,1.41,5.78,5.15,5.78v1.69c-2.05-.08-6.69-.32-10.62-.32s-8.09.24-10,.32v-1.69c2.83,0,3.85-1.3,3.85-5.78v-25c0-4-.79-6.72-4.79-6.72s-7.24,3.7-7.87,8.41l0,1.65v21.7c0,4.48,1.18,5.78,4.64,5.78v1.69c-1.92-.08-6.41-.32-10.14-.32-3.93,0-8.1.24-10,.32v-1.69c2.83,0,3.89-1.3,3.89-5.78v-25c0-4-.67-6.72-4.33-6.72-4.32,0-7.82,4-7.82,9.32V822.3c0,4.48,1,5.78,3.85,5.78v1.69c-1.8-.08-5.77-.32-9.51-.32-4.12,0-9,.24-11.08.32v-1.69c3.73,0,5.15-1.3,5.15-5.78V796.91c0-4.84-1.26-7.12-5.15-7.12V788.1c1.69.16,3.38.28,5,.28a52,52,0,0,0,11.75-1.14v7.27c2.52-5.34,7.16-7.51,12.46-7.51,4.44,0,7.16,1.26,8.81,3.15a9.45,9.45,0,0,1,2,4.79c3-6.13,7.94-7.94,13.37-7.94,4.48,0,7.15,1.26,8.8,3.15,1.81,2,2.48,5.15,2.48,10.45Z"/><path d="M369.92,421.15a32.1,32.1,0,0,1-16.75-4.5,32.45,32.45,0,0,1-12-12.7q-4.46-8.19-4.45-19.4a40.05,40.05,0,0,1,2.7-14.9,35.86,35.86,0,0,1,7.4-11.7,33.83,33.83,0,0,1,10.8-7.6,31.54,31.54,0,0,1,12.9-2.7,26.41,26.41,0,0,1,7.9,1.1,54.8,54.8,0,0,1,5.7,2.1c1.73.74,2.95,1.24,3.65,1.5a6.47,6.47,0,0,0,2.35.4,2,2,0,0,0,1.95-1.25,6,6,0,0,0,.55-2.45h2.5l-.2,11.5.2,11.7h-2.5a21.15,21.15,0,0,0-3.55-11.65,22.32,22.32,0,0,0-8.4-7.4,22.92,22.92,0,0,0-10.45-2.55q-11.7,0-17.5,8.8t-5.8,25.1q0,17.2,6.2,25.4t17.4,8.2a25.49,25.49,0,0,0,9.9-1.8,17.6,17.6,0,0,0,6.8-4.75,9.38,9.38,0,0,0,2.5-6.15v-2.8q0-4.39-2.05-6.3c-1.37-1.26-3.88-2.06-7.55-2.4l-4.3-.4v-2.4l16.6.4,15.4-.4v2.4l-4.5.4a6.34,6.34,0,0,0-4.4,2.1q-1.69,1.9-1.7,6.6v1.8a12.11,12.11,0,0,0,.75,4.3,34,34,0,0,0,1.45,3.4l1.4,2.5-2.3,1.5A8.5,8.5,0,0,0,396,413.3a4.37,4.37,0,0,0-2.15-.75,5.45,5.45,0,0,0-2.9.8c-.87.54-1.8,1.17-2.8,1.9s-2.48,1.67-4.05,2.6a23.32,23.32,0,0,1-5.75,2.35A31.45,31.45,0,0,1,369.92,421.15Z"/><path d="M411.59,420.42v-2.83l2-.24a29.44,29.44,0,0,0,5.48-1.17,4.33,4.33,0,0,0,2.64-3.07,30.09,30.09,0,0,0,.74-7.94V379a30,30,0,0,0-.74-7.93A4.51,4.51,0,0,0,419,367.9a22.12,22.12,0,0,0-5.48-1.1l-2-.25v-2.83l15.13.37,15.12-.37v2.83l-2,.25a22.12,22.12,0,0,0-5.48,1.1,4.51,4.51,0,0,0-2.64,3.14A30,30,0,0,0,431,379v26.45a22.44,22.44,0,0,0,1.29,8.48q1.29,3.08,6.46,3.08h6.76q7.26,0,10.52-4.37t4-12.6h2.83L462,420.3l-35.3-.25Z"/><path d="M502.36,421.41a32.51,32.51,0,0,1-11.69-2.16,33,33,0,0,1-10.14-6.08,29.49,29.49,0,0,1-7.14-9.35A26.56,26.56,0,0,1,470.75,392a27.2,27.2,0,0,1,2.7-12.3,29.74,29.74,0,0,1,7.32-9.35,33.4,33.4,0,0,1,21.59-8,33.48,33.48,0,0,1,10.95,1.9A32.49,32.49,0,0,1,523.45,370a28.66,28.66,0,0,1,7.38,9.29A27.79,27.79,0,0,1,533.6,392a25.58,25.58,0,0,1-2.71,11.75A30.58,30.58,0,0,1,523.7,413a34.44,34.44,0,0,1-10,6.15A30.13,30.13,0,0,1,502.36,421.41Zm0-3.69q7.62,0,12.3-3.51a20.51,20.51,0,0,0,6.89-9.35A36.11,36.11,0,0,0,523.76,392q0-11.68-5-18.82t-16.42-7.13q-8.12,0-12.92,3.5a19.05,19.05,0,0,0-6.82,9.35,39.58,39.58,0,0,0-2,13.1,33.87,33.87,0,0,0,2.4,13,20.81,20.81,0,0,0,7.19,9.28Q495,417.72,502.36,417.72Z"/><path d="M541.72,420.42v-2.83l2-.24a31.11,31.11,0,0,0,5.53-1.17,4.35,4.35,0,0,0,2.71-3.07,30.19,30.19,0,0,0,.73-7.94V379a30.1,30.1,0,0,0-.73-7.93,4.54,4.54,0,0,0-2.65-3.14,22,22,0,0,0-5.47-1.1l-2-.25v-2.83l15.13.37h13.78a65.59,65.59,0,0,1,7.31.43,29.53,29.53,0,0,1,7.26,1.72,13.11,13.11,0,0,1,5.47,3.75,9.53,9.53,0,0,1,2.1,6.4,11,11,0,0,1-2,6.76,14.2,14.2,0,0,1-5.17,4.25,28.88,28.88,0,0,1-6.46,2.27,36.77,36.77,0,0,1,8.24,1.91,14.89,14.89,0,0,1,6.46,4.37,11.88,11.88,0,0,1,2.52,8,13.73,13.73,0,0,1-2,7.75,16,16,0,0,1-5,4.92,22.24,22.24,0,0,1-6.15,2.64,21.86,21.86,0,0,1-5.35.8h-21ZM568.29,367h-7.38v21.9h12.17c3.36,0,5.93-1,7.69-3.08s2.64-5,2.64-8.73-1.21-6.4-3.62-7.87S573.53,367,568.29,367Zm.61,50.06h4.67q13.41,0,13.41-13.16,0-5.65-2.34-8.18a10.7,10.7,0,0,0-6.21-3.2,48.37,48.37,0,0,0-8.3-.67h-9.22v16.36c0,3,.71,5.27,2.15,6.7A7.86,7.86,0,0,0,568.9,417.1Z"/><path d="M599.77,420.42v-2.58l1.72-.37a15,15,0,0,0,3.63-1.23,7.77,7.77,0,0,0,2.65-2.46,25.59,25.59,0,0,0,2.58-5l18.57-44.65h4.68l17.22,41.45a67.76,67.76,0,0,0,3.81,8,7.16,7.16,0,0,0,4.68,3.44l3.68.86v2.58l-12.79-.37-14.39.37v-2.58l4.68-.86a4.79,4.79,0,0,0,2-.92,2.71,2.71,0,0,0,.86-2.28,9.82,9.82,0,0,0-.73-3.32l-3.69-9.35H617l-3,7.38c-.57,1.56-1,2.87-1.41,3.94a8.36,8.36,0,0,0-.56,2.58,1.91,1.91,0,0,0,.74,1.72,5.37,5.37,0,0,0,2,.74l3.2.37v2.58l-9.23-.37Zm28.42-47-10,24.6h19.56Z"/><path d="M665.33,420.42v-2.83l2-.24a29.31,29.31,0,0,0,5.47-1.17,4.36,4.36,0,0,0,2.65-3.07,30.19,30.19,0,0,0,.73-7.94V379a30.1,30.1,0,0,0-.73-7.93,4.54,4.54,0,0,0-2.65-3.14,22,22,0,0,0-5.47-1.1l-2-.25v-2.83l15.13.37,15.13-.37v2.83l-2,.25a22,22,0,0,0-5.47,1.1A4.5,4.5,0,0,0,685.5,371a30,30,0,0,0-.74,7.93v26.45a22.21,22.21,0,0,0,1.3,8.48q1.29,3.08,6.45,3.08h6.77q7.26,0,10.51-4.37t4-12.6h2.83l-.86,20.29-35.3-.25Z"/></g></g></svg>