<svg xmlns="http://www.w3.org/2000/svg" viewBox="0 0 460.52 333.18"><g id="Layer_2" data-name="Layer 2"><g id="text"><path d="M277.3,159.36l.71-.54-4.38-55.44L265.44,159C269.25,159.63,273.36,159.22,277.3,159.36Z"/><path d="M222.17,194.82v73.36a22.8,22.8,0,0,0,11.31,0V194.82A22.8,22.8,0,0,0,222.17,194.82Z"/><path d="M0,0V333.18H460.52V0ZM346.58,185.14c-14,.41-31.1.13-43.68,0v-.78c1.55-.41,3.39.54,4.52-.82-.14-36.81.14-73.49,0-111.13-1.41-.67-3.53-.13-4.95-.54-.28-1,1-.68,1.7-.81,8.48-.27,17.25,0,25.87-.14v.82c-2,.54-4.25-.28-6.08.67v111c1.83,1.08,4.24.13,6.08.13,5.52-3.53,7.21-9.91,9.19-15.48a143.14,143.14,0,0,0,5.94-30.3c.27-.27.7-.13,1-.13C346.87,153.11,346.43,170.06,346.58,185.14ZM258.72,56.89h87.64v1.53H258.72ZM257,183.41c3.25-1.5,3.82-4.89,4.38-7.74l13.72-93.75,1.7-10.59a49,49,0,0,1,8.9,0l.42,2s9.48,99.86,11.45,110.46l2.83.13v1L275.9,185c-.28-.14,0-.55-.15-.82,1.55-.27,3.12,0,4.38-.81-.27-7.74-1.13-14.67-1.83-22.28l-.7-.54-12.31.13c-1.41,5.16-1.55,10.74-2.4,16,.28,2.72,1.13,5.57,4.1,6.79.71.28,2.68,0,2,1.5l-14.43.14C253.41,183.41,256.24,184.36,257,183.41Zm-1.69,74c-9.33,10.72-23.33,16.43-37.61,12.08-15.12-5-25.58-20-26.57-34.92-1.13-15.35,5.36-28.79,18.66-37.35,10.32-6.93,26.57-6.53,37-.28a34.3,34.3,0,0,1,13.72,14.81C268.12,225.66,265.29,245.49,255.26,257.46ZM248.14,51.24c1.47,0,3.56.15,3.56,2.16,0,3.2-5.59,5.49-8.29,6.26a18.84,18.84,0,0,0-.27,2.23c0,1.24,1.16,1.53,1.91,1.53,2.77,0,4.63-2.65,5.58-3.92l.52.52c-1.84,3.07-3.6,4.39-7.06,4.39-2.59,0-4.09-1.81-4.09-4.74A8.3,8.3,0,0,1,248.14,51.24Zm-7,27.83,6.51-7.61h.71c.14,15.49.43,29.76.28,45.52-.14.4-.71.13-1.13.27-2.26-14.81-2.83-30.16-10.75-42.66a8,8,0,0,0-4.94-3.27c-1.84-.4-3.39,1-4.24,2.45l-1,3.27.14,104.06a4.91,4.91,0,0,0,2.83,3.94,5.9,5.9,0,0,0,4.52-.68c1.7-1.36,1.48-3.39,1.48-5.43V133.41c-1-1.22-4.17.41-4-1.49,7.92,0,15.69-.55,23.6-.14-.28,1.5-2.68.27-3.4,1.63v50.41c-.42.4.44,1.9-.84,1.36l-6.36-9.92h-.42c-1.84,4.35-5.09,9.92-10.61,10.59a15.66,15.66,0,0,1-16.25-6.65c-6.93-12.36-6.93-27.58-7.77-42.39-.29-17.66-.43-35.73,4.94-51.49,2.12-6.25,6.92-14,14.56-15.08,4.81-.82,8.06,2.45,10.18,6C239.71,77.17,240.13,79.07,241.11,79.07ZM224.77,43.85l.22-1,5.88-.41-3.05,13.08.06.24c.91-2.1,3.41-4.48,5.68-4.48,1.92,0,2.68,1.19,2.68,2.13a10.34,10.34,0,0,1-.45,2.92l-.92,3.21a13.35,13.35,0,0,0-.5,2.13c0,.38.22.85.56.85,1,0,1.88-2.09,2.31-3l.54.19c-.77,2.07-2.45,4.86-4.64,4.86a2.18,2.18,0,0,1-2.07-2.25,12.23,12.23,0,0,1,.63-3.15l.88-3.18a11.9,11.9,0,0,0,.51-2.41c0-.64-.32-1.05-.91-1.05-1.05,0-2.6,1.69-3.11,2.58a22.6,22.6,0,0,0-2.29,4.62l-1.22,4.26h-3l3.55-14.71a39.4,39.4,0,0,0,.82-4.44C226.92,43.85,225.45,43.85,224.77,43.85Zm-18.92.93,8,.12c2.44,0,4.86-.09,7.36-.12,0,.8,0,1.64,0,2.45.08,1,.18,2.06.26,3.1H220.4c-.49-3.22-1.39-4.18-4.35-4.18h-.43l-2.51,13.17a16.43,16.43,0,0,0-.48,3.08c.06,1.4,1.31,1.13,2.6,1.13l-.19,1c-1.53,0-3.1-.1-4.63-.12s-3.09.08-4.62.12l.2-1c2.39,0,2.56-.36,3-2.84l2.77-14.54h-.37c-3.13,0-4.56.3-5.58,3.92h-1.07Zm-1.41,70.16h-1.21c-2.12-13.45-4.1-26.9-10.17-38.72-2.41-3.4-6.94-4.21-10.61-3.53l-.67.68v52.57a1,1,0,0,0,.39,1c3.39-.54,5.37-3.94,6.64-6.52a84.88,84.88,0,0,0,4.39-20.92c.28-.27.56-.14,1-.14.14,18.62.14,37.77,0,56.52a1.32,1.32,0,0,1-1.13.41c-.71-3-.85-6.25-1.28-9.38-1.83-6.52-1.7-15.08-9.19-18.34h-.81V183c0,.54,0,1.09.53,1.09,7.36.95,10.32-7.07,12.87-11.68,3.95-10.47,6.07-21.61,7.63-32.88a1.21,1.21,0,0,1,1.34-.14v45.38l-.49.41L160.12,185v-.95c1.41-.55,4,.4,5.15-.81V72.69c-1.41-1-3,0-4.3-.82v-.4c14-.28,29.05-.28,43.47,0ZM152.63,269.13V224c-10.61-1.23-20.23,1.9-28.57,7.18l-1.69-.94c1.13-12.77,2.83-25.82,4.24-38.59l.43-.13c16.82,2.58,36.75,5,53.57,1-2,9.36-10.74,19.68-21.21,21.18s-22.18.69-32.79-.4l-.42,1.09-1.56,13.72.28.27c13.58-8.57,35.49-9,49.06-.27,7.49,5.3,11.17,13,9.75,22-1.13,8.56-9.47,16.44-17.81,18.62-15.69,4.49-34.91,3-47.36-6.94-4-3.12-5.09-7.87-4.09-12.63a13.52,13.52,0,0,1,9-9.1,14.41,14.41,0,0,1,11.6,1.77c3.67,2.85,5.79,6.52,5.65,10.87-.14,4.61-3.25,9-7.63,11.13-1.56.68-3.4.82-5,1.5C135.23,269,144,269.54,152.63,269.13ZM113.29,56.89h83.94v1.53H113.29ZM118,183.21V72.42l-4.24-.28V71.06H141c.56.26.43,1,.28,1.22-2.12.14-5.16-.54-6.85.68V183.55c1.69,1.08,3.32,0,5.3.4,3.25-1.22,4.52-4.62,6.08-7.2,5.51-11.95,7.92-25.13,9.62-38.58h1.12c.15,15.49.28,31.79-.28,47L112.76,185C112.72,183,116.71,184.3,118,183.21Zm228.11,103H113.32v-1.52H346.1Zm-2.63-36.95c-6.07,12.64-19.37,22.42-34.49,21.87-13.58-.68-26.59-10.73-31.68-22.82-5.51-12.5-4.8-30,4-40.9,8.2-11,20.21-16.71,34.21-15.35a35.18,35.18,0,0,1,24.45,13.73C349.13,217.51,350.11,236.12,343.47,249.3Z"/><path d="M249.18,53.15c0-1-.63-1.22-1.77-1-2.22.34-3.44,4.53-3.84,6.28C245.47,57.75,249.18,55.66,249.18,53.15Z"/><path d="M304.87,194.69v73.63a20.45,20.45,0,0,0,11.45,0V194.55C312.79,193.33,308.27,193.87,304.87,194.69Z"/></g></g></svg>