<svg id="Capa_1" data-name="Capa 1" xmlns="http://www.w3.org/2000/svg" viewBox="0 0 173 35.41"><defs><style>.cls-1{fill:#fff;}</style></defs><path class="cls-1" d="M46.36,0C37,.14,30.46,8.25,30.22,17.26,30,26.67,37.27,35.68,47.14,35.4S63.72,25.93,63,16.56C62.41,7.61,55.65-.13,46.36,0m9,17.07C55.27,25.6,56,33.77,47.29,34c-9.53.28-9.48-7.79-9.28-16.28.14-7.84-.4-16.31,8.21-16.41C55.94,1.22,55.4,9,55.35,17.07"/><path class="cls-1" d="M95.31,2.06h3.38a2,2,0,0,1,2,1.95h0V31.48a2,2,0,0,1-2,1.77H95.31v1.31h17.27v-1.4h-2.81s-2.21-.06-2.3-1.82V3.87c.1-1.75,2.3-1.81,2.3-1.81h2.81V.66H95.31Z"/><path class="cls-1" d="M137.28,32.45c-2,.86-9.5.72-9.5.72a2,2,0,0,1-2-1.85V4c0-1.44,1.35-1.82,2-1.91h3.12V.66H114v1.4h2.94a2,2,0,0,1,2,1.95v27.2A1.94,1.94,0,0,1,117,33.16h-3V34.6h28.8V23.27h-1c.21,2.75-1.07,7.79-4.47,9.18"/><path class="cls-1" d="M172,23.27c.19,2.75-1.08,7.79-4.48,9.18-2,.86-9.51.72-9.51.72a2,2,0,0,1-2-1.85V4c0-1.44,1.36-1.82,2-1.91h3.1V.66H144.21v1.4h2.94a2,2,0,0,1,2,1.95v27.2a1.94,1.94,0,0,1-1.93,1.95h-3V34.6H173V23.27Z"/><path class="cls-1" d="M23.3,32.45c-2,.86-9.51.72-9.51.72a2,2,0,0,1-2-1.85V4c0-1.44,1.36-1.82,2-1.91h3.1V.66H0v1.4H3A2,2,0,0,1,4.92,4v27.2A2,2,0,0,1,3,33.16H0V34.6H28.8V23.27h-1C28,26,26.71,31.06,23.3,32.45"/><path class="cls-1" d="M82.33,2.06h2.76a2.31,2.31,0,0,1,1.63.73,1.94,1.94,0,0,1,.09,2c-.19.46-.36.94-.53,1.39-.25.67-.51,1.34-.75,2-.32.82-.61,1.62-.92,2.43s-.69,1.85-1,2.77-.72,1.89-1.07,2.83-.68,1.83-1,2.73-.61,1.66-.92,2.5c-.27.69-.53,1.37-.78,2.06l-.54,1.44c-.08.22-.16.45-.26.68v0s0-.09,0-.13-.08-.24-.12-.36a6.13,6.13,0,0,1-.22-.6c-.11-.25-.2-.51-.29-.77s-.24-.63-.35-.95l-.41-1.08c-.15-.41-.29-.82-.44-1.22s-.33-.88-.49-1.32-.34-.91-.51-1.37-.34-1-.52-1.43-.37-1-.55-1.48-.35-1-.54-1.45L74,12.05c-.17-.48-.35-1-.52-1.43s-.32-.87-.49-1.31-.3-.8-.45-1.2l-.42-1.19c-.12-.32-.23-.64-.36-1s-.19-.47-.28-.72-.2-.64-.3-1a1.45,1.45,0,0,1,.39-1.67,2.34,2.34,0,0,1,1.14-.52,1.07,1.07,0,0,1,.25,0h2.55V.66H58.79v1.4h2.73A2.48,2.48,0,0,1,64,4L64,4,75.35,34.7h2.27C79.3,30.08,88.79,4.07,88.8,4a5.52,5.52,0,0,1,.55-1.18,2.2,2.2,0,0,1,1.86-.77c.82,0,1.64,0,2.48,0h.21V.66H82.33Z"/></svg>